<?xml version="1.0" encoding="UTF-8" standalone="no"?>
<!DOCTYPE svg PUBLIC "-//W3C//DTD SVG 1.1//EN"
 "http://www.w3.org/Graphics/SVG/1.1/DTD/svg11.dtd">
<!-- Generated by graphviz version 2.47.0 (20210316.0004)
 -->
<!-- Title: dependencies Pages: 1 -->
<svg width="504pt" height="211pt"
 viewBox="0.00 0.00 504.00 211.00" xmlns="http://www.w3.org/2000/svg" xmlns:xlink="http://www.w3.org/1999/xlink">
<g id="graph0" class="graph" transform="scale(1 1) rotate(0) translate(4 207)">
<title>dependencies</title>
<polygon fill="white" stroke="transparent" points="-4,4 -4,-207 500,-207 500,4 -4,4"/>
<text text-anchor="start" x="227.01" y="-42.4" font-family="Times-12" font-weight="bold" font-size="14.00">Legend</text>
<polygon fill="#ffffb3" stroke="transparent" points="14,-10 14,-30 34,-30 34,-10 14,-10"/>
<text text-anchor="start" x="37.63" y="-15.4" font-family="Times-12" font-size="14.00"> &#160;Declarations</text>
<polygon fill="#8dd3c7" stroke="transparent" points="127,-10 127,-30 147,-30 147,-10 127,-10"/>
<text text-anchor="start" x="150.73" y="-15.4" font-family="Times-12" font-size="14.00"> &#160;Module</text>
<polygon fill="#80b1d3" stroke="transparent" points="213,-10 213,-30 233,-30 233,-10 213,-10"/>
<text text-anchor="start" x="236.78" y="-15.4" font-family="Times-12" font-size="14.00"> &#160;Bootstrap</text>
<polygon fill="#fdb462" stroke="transparent" points="310,-10 310,-30 330,-30 330,-10 310,-10"/>
<text text-anchor="start" x="333.67" y="-15.4" font-family="Times-12" font-size="14.00"> &#160;Providers</text>
<polygon fill="#fb8072" stroke="transparent" points="406,-10 406,-30 426,-30 426,-10 406,-10"/>
<text text-anchor="start" x="429.73" y="-15.4" font-family="Times-12" font-size="14.00"> &#160;Exports</text>
<g id="clust1" class="cluster">
<title>cluster_StudentModule</title>
<polygon fill="none" stroke="black" stroke-dasharray="1,5" points="108,-70 108,-195 388,-195 388,-70 108,-70"/>
</g>
<g id="clust6" class="cluster">
<title>cluster_StudentModule_providers</title>
<polygon fill="none" stroke="black" points="226,-78 226,-130 380,-130 380,-78 226,-78"/>
</g>
<g id="clust3" class="cluster">
<title>cluster_StudentModule_imports</title>
<polygon fill="none" stroke="black" points="116,-78 116,-130 218,-130 218,-78 116,-78"/>
</g>
<!-- UserModule -->
<g id="node1" class="node">
<title>UserModule</title>
<polygon fill="#8dd3c7" stroke="black" points="209.98,-122 206.98,-126 185.98,-126 182.98,-122 124.02,-122 124.02,-86 209.98,-86 209.98,-122"/>
<text text-anchor="middle" x="167" y="-99.8" font-family="Times,serif" font-size="14.00">UserModule</text>
</g>
<!-- StudentModule -->
<g id="node2" class="node">
<title>StudentModule</title>
<polygon fill="#8dd3c7" stroke="black" points="286.33,-187 283.33,-191 262.33,-191 259.33,-187 183.67,-187 183.67,-151 286.33,-151 286.33,-187"/>
<text text-anchor="middle" x="235" y="-164.8" font-family="Times,serif" font-size="14.00">StudentModule</text>
</g>
<!-- UserModule&#45;&gt;StudentModule -->
<g id="edge1" class="edge">
<title>UserModule&#45;&gt;StudentModule</title>
<path fill="none" stroke="black" d="M196.91,-122.11C196.91,-122.11 196.91,-140.99 196.91,-140.99"/>
<polygon fill="black" stroke="black" points="193.41,-140.99 196.91,-150.99 200.41,-140.99 193.41,-140.99"/>
</g>
<!-- StudentService -->
<g id="node3" class="node">
<title>StudentService</title>
<ellipse fill="#fdb462" stroke="black" cx="303" cy="-104" rx="69.5" ry="18"/>
<text text-anchor="middle" x="303" y="-99.8" font-family="Times,serif" font-size="14.00">StudentService</text>
</g>
<!-- StudentService&#45;&gt;StudentModule -->
<g id="edge2" class="edge">
<title>StudentService&#45;&gt;StudentModule</title>
<path fill="none" stroke="black" d="M259.83,-118.43C259.83,-118.43 259.83,-140.89 259.83,-140.89"/>
<polygon fill="black" stroke="black" points="256.33,-140.89 259.83,-150.89 263.33,-140.89 256.33,-140.89"/>
</g>
</g>
</svg>
