<?xml version="1.0" encoding="UTF-8" standalone="no"?>
<!DOCTYPE svg PUBLIC "-//W3C//DTD SVG 1.1//EN"
 "http://www.w3.org/Graphics/SVG/1.1/DTD/svg11.dtd">
<!-- Generated by graphviz version 2.47.0 (20210316.0004)
 -->
<!-- Title: dependencies Pages: 1 -->
<svg width="504pt" height="284pt"
 viewBox="0.00 0.00 504.00 284.00" xmlns="http://www.w3.org/2000/svg" xmlns:xlink="http://www.w3.org/1999/xlink">
<g id="graph0" class="graph" transform="scale(1 1) rotate(0) translate(4 280)">
<title>dependencies</title>
<polygon fill="white" stroke="transparent" points="-4,4 -4,-280 500,-280 500,4 -4,4"/>
<text text-anchor="start" x="227.01" y="-42.4" font-family="Times-12" font-weight="bold" font-size="14.00">Legend</text>
<polygon fill="#ffffb3" stroke="transparent" points="14,-10 14,-30 34,-30 34,-10 14,-10"/>
<text text-anchor="start" x="37.63" y="-15.4" font-family="Times-12" font-size="14.00"> &#160;Declarations</text>
<polygon fill="#8dd3c7" stroke="transparent" points="127,-10 127,-30 147,-30 147,-10 127,-10"/>
<text text-anchor="start" x="150.73" y="-15.4" font-family="Times-12" font-size="14.00"> &#160;Module</text>
<polygon fill="#80b1d3" stroke="transparent" points="213,-10 213,-30 233,-30 233,-10 213,-10"/>
<text text-anchor="start" x="236.78" y="-15.4" font-family="Times-12" font-size="14.00"> &#160;Bootstrap</text>
<polygon fill="#fdb462" stroke="transparent" points="310,-10 310,-30 330,-30 330,-10 310,-10"/>
<text text-anchor="start" x="333.67" y="-15.4" font-family="Times-12" font-size="14.00"> &#160;Providers</text>
<polygon fill="#fb8072" stroke="transparent" points="406,-10 406,-30 426,-30 426,-10 406,-10"/>
<text text-anchor="start" x="429.73" y="-15.4" font-family="Times-12" font-size="14.00"> &#160;Exports</text>
<g id="clust1" class="cluster">
<title>cluster_SubjectModule</title>
<polygon fill="none" stroke="black" stroke-dasharray="1,5" points="106,-70 106,-268 390,-268 390,-70 106,-70"/>
</g>
<g id="clust4" class="cluster">
<title>cluster_SubjectModule_exports</title>
<polygon fill="none" stroke="black" points="179,-208 179,-260 299,-260 299,-208 179,-208"/>
</g>
<g id="clust6" class="cluster">
<title>cluster_SubjectModule_providers</title>
<polygon fill="none" stroke="black" points="228,-78 228,-130 382,-130 382,-78 228,-78"/>
</g>
<g id="clust3" class="cluster">
<title>cluster_SubjectModule_imports</title>
<polygon fill="none" stroke="black" points="114,-78 114,-130 220,-130 220,-78 114,-78"/>
</g>
<!-- ClassModule -->
<g id="node1" class="node">
<title>ClassModule</title>
<polygon fill="#8dd3c7" stroke="black" points="211.88,-122 208.88,-126 187.88,-126 184.88,-122 122.12,-122 122.12,-86 211.88,-86 211.88,-122"/>
<text text-anchor="middle" x="167" y="-99.8" font-family="Times,serif" font-size="14.00">ClassModule</text>
</g>
<!-- SubjectModule -->
<g id="node2" class="node">
<title>SubjectModule</title>
<polygon fill="#8dd3c7" stroke="black" points="289.54,-187 286.54,-191 265.54,-191 262.54,-187 188.46,-187 188.46,-151 289.54,-151 289.54,-187"/>
<text text-anchor="middle" x="239" y="-164.8" font-family="Times,serif" font-size="14.00">SubjectModule</text>
</g>
<!-- ClassModule&#45;&gt;SubjectModule -->
<g id="edge1" class="edge">
<title>ClassModule&#45;&gt;SubjectModule</title>
<path fill="none" stroke="black" d="M200.08,-122.11C200.08,-122.11 200.08,-140.99 200.08,-140.99"/>
<polygon fill="black" stroke="black" points="196.58,-140.99 200.08,-150.99 203.58,-140.99 196.58,-140.99"/>
</g>
<!-- SubjectService  -->
<g id="node3" class="node">
<title>SubjectService </title>
<polygon fill="#fb8072" stroke="black" points="290.97,-252 187.03,-252 187.03,-216 290.97,-216 290.97,-252"/>
<text text-anchor="middle" x="239" y="-229.8" font-family="Times,serif" font-size="14.00">SubjectService </text>
</g>
<!-- SubjectModule&#45;&gt;SubjectService  -->
<g id="edge2" class="edge">
<title>SubjectModule&#45;&gt;SubjectService </title>
<path fill="none" stroke="black" stroke-dasharray="5,2" d="M239,-187.11C239,-187.11 239,-205.99 239,-205.99"/>
<polygon fill="black" stroke="black" points="235.5,-205.99 239,-215.99 242.5,-205.99 235.5,-205.99"/>
</g>
<!-- SubjectService -->
<g id="node4" class="node">
<title>SubjectService</title>
<ellipse fill="#fdb462" stroke="black" cx="305" cy="-104" rx="68.92" ry="18"/>
<text text-anchor="middle" x="305" y="-99.8" font-family="Times,serif" font-size="14.00">SubjectService</text>
</g>
<!-- SubjectService&#45;&gt;SubjectModule -->
<g id="edge3" class="edge">
<title>SubjectService&#45;&gt;SubjectModule</title>
<path fill="none" stroke="black" d="M262.91,-118.43C262.91,-118.43 262.91,-140.89 262.91,-140.89"/>
<polygon fill="black" stroke="black" points="259.41,-140.89 262.91,-150.89 266.41,-140.89 259.41,-140.89"/>
</g>
</g>
</svg>
