<?xml version="1.0" encoding="UTF-8" standalone="no"?>
<!DOCTYPE svg PUBLIC "-//W3C//DTD SVG 1.1//EN"
 "http://www.w3.org/Graphics/SVG/1.1/DTD/svg11.dtd">
<!-- Generated by graphviz version 2.47.0 (20210316.0004)
 -->
<!-- Title: dependencies Pages: 1 -->
<svg width="504pt" height="284pt"
 viewBox="0.00 0.00 504.00 284.00" xmlns="http://www.w3.org/2000/svg" xmlns:xlink="http://www.w3.org/1999/xlink">
<g id="graph0" class="graph" transform="scale(1 1) rotate(0) translate(4 280)">
<title>dependencies</title>
<polygon fill="white" stroke="transparent" points="-4,4 -4,-280 500,-280 500,4 -4,4"/>
<text text-anchor="start" x="227.01" y="-42.4" font-family="Times-12" font-weight="bold" font-size="14.00">Legend</text>
<polygon fill="#ffffb3" stroke="transparent" points="14,-10 14,-30 34,-30 34,-10 14,-10"/>
<text text-anchor="start" x="37.63" y="-15.4" font-family="Times-12" font-size="14.00"> &#160;Declarations</text>
<polygon fill="#8dd3c7" stroke="transparent" points="127,-10 127,-30 147,-30 147,-10 127,-10"/>
<text text-anchor="start" x="150.73" y="-15.4" font-family="Times-12" font-size="14.00"> &#160;Module</text>
<polygon fill="#80b1d3" stroke="transparent" points="213,-10 213,-30 233,-30 233,-10 213,-10"/>
<text text-anchor="start" x="236.78" y="-15.4" font-family="Times-12" font-size="14.00"> &#160;Bootstrap</text>
<polygon fill="#fdb462" stroke="transparent" points="310,-10 310,-30 330,-30 330,-10 310,-10"/>
<text text-anchor="start" x="333.67" y="-15.4" font-family="Times-12" font-size="14.00"> &#160;Providers</text>
<polygon fill="#fb8072" stroke="transparent" points="406,-10 406,-30 426,-30 426,-10 406,-10"/>
<text text-anchor="start" x="429.73" y="-15.4" font-family="Times-12" font-size="14.00"> &#160;Exports</text>
<g id="clust1" class="cluster">
<title>cluster_AuthenticationModule</title>
<polygon fill="none" stroke="black" stroke-dasharray="1,5" points="35,-70 35,-268 461,-268 461,-70 35,-70"/>
</g>
<g id="clust6" class="cluster">
<title>cluster_AuthenticationModule_providers</title>
<polygon fill="none" stroke="black" points="153,-78 153,-130 453,-130 453,-78 153,-78"/>
</g>
<g id="clust4" class="cluster">
<title>cluster_AuthenticationModule_exports</title>
<polygon fill="none" stroke="black" points="111,-208 111,-260 327,-260 327,-208 111,-208"/>
</g>
<g id="clust3" class="cluster">
<title>cluster_AuthenticationModule_imports</title>
<polygon fill="none" stroke="black" points="43,-78 43,-130 145,-130 145,-78 43,-78"/>
</g>
<!-- CoreModule -->
<g id="node1" class="node">
<title>CoreModule</title>
<polygon fill="#8dd3c7" stroke="black" points="137.26,-122 134.26,-126 113.26,-126 110.26,-122 50.74,-122 50.74,-86 137.26,-86 137.26,-122"/>
<text text-anchor="middle" x="94" y="-99.8" font-family="Times,serif" font-size="14.00">CoreModule</text>
</g>
<!-- AuthenticationModule -->
<g id="node2" class="node">
<title>AuthenticationModule</title>
<polygon fill="#8dd3c7" stroke="black" points="286.25,-187 283.25,-191 262.25,-191 259.25,-187 143.75,-187 143.75,-151 286.25,-151 286.25,-187"/>
<text text-anchor="middle" x="215" y="-164.8" font-family="Times,serif" font-size="14.00">AuthenticationModule</text>
</g>
<!-- CoreModule&#45;&gt;AuthenticationModule -->
<g id="edge1" class="edge">
<title>CoreModule&#45;&gt;AuthenticationModule</title>
<path fill="none" stroke="black" d="M137.32,-104C145.91,-104 152.34,-104 152.34,-104 152.34,-104 152.34,-140.89 152.34,-140.89"/>
<polygon fill="black" stroke="black" points="148.84,-140.89 152.34,-150.89 155.84,-140.89 148.84,-140.89"/>
</g>
<!-- BcryptService  -->
<g id="node3" class="node">
<title>BcryptService </title>
<polygon fill="#fb8072" stroke="black" points="318.58,-252 219.42,-252 219.42,-216 318.58,-216 318.58,-252"/>
<text text-anchor="middle" x="269" y="-229.8" font-family="Times,serif" font-size="14.00">BcryptService </text>
</g>
<!-- AuthenticationModule&#45;&gt;BcryptService  -->
<g id="edge2" class="edge">
<title>AuthenticationModule&#45;&gt;BcryptService </title>
<path fill="none" stroke="black" stroke-dasharray="5,2" d="M252.79,-187.11C252.79,-187.11 252.79,-205.99 252.79,-205.99"/>
<polygon fill="black" stroke="black" points="249.29,-205.99 252.79,-215.99 256.29,-205.99 249.29,-205.99"/>
</g>
<!-- JwtStorage  -->
<g id="node4" class="node">
<title>JwtStorage </title>
<polygon fill="#fb8072" stroke="black" points="200.71,-252 119.29,-252 119.29,-216 200.71,-216 200.71,-252"/>
<text text-anchor="middle" x="160" y="-229.8" font-family="Times,serif" font-size="14.00">JwtStorage </text>
</g>
<!-- AuthenticationModule&#45;&gt;JwtStorage  -->
<g id="edge3" class="edge">
<title>AuthenticationModule&#45;&gt;JwtStorage </title>
<path fill="none" stroke="black" stroke-dasharray="5,2" d="M172.24,-187.11C172.24,-187.11 172.24,-205.99 172.24,-205.99"/>
<polygon fill="black" stroke="black" points="168.74,-205.99 172.24,-215.99 175.74,-205.99 168.74,-205.99"/>
</g>
<!-- DatabaseStrategy -->
<g id="node5" class="node">
<title>DatabaseStrategy</title>
<ellipse fill="#fdb462" stroke="black" cx="366" cy="-104" rx="78.71" ry="18"/>
<text text-anchor="middle" x="366" y="-99.8" font-family="Times,serif" font-size="14.00">DatabaseStrategy</text>
</g>
<!-- DatabaseStrategy&#45;&gt;AuthenticationModule -->
<g id="edge4" class="edge">
<title>DatabaseStrategy&#45;&gt;AuthenticationModule</title>
<path fill="none" stroke="black" d="M287.11,-104C281.31,-104 277.66,-104 277.66,-104 277.66,-104 277.66,-140.89 277.66,-140.89"/>
<polygon fill="black" stroke="black" points="274.16,-140.89 277.66,-150.89 281.16,-140.89 274.16,-140.89"/>
</g>
<!-- JwtStorage -->
<g id="node6" class="node">
<title>JwtStorage</title>
<ellipse fill="#fdb462" stroke="black" cx="215" cy="-104" rx="53.89" ry="18"/>
<text text-anchor="middle" x="215" y="-99.8" font-family="Times,serif" font-size="14.00">JwtStorage</text>
</g>
<!-- JwtStorage&#45;&gt;AuthenticationModule -->
<g id="edge5" class="edge">
<title>JwtStorage&#45;&gt;AuthenticationModule</title>
<path fill="none" stroke="black" d="M215,-122.11C215,-122.11 215,-140.99 215,-140.99"/>
<polygon fill="black" stroke="black" points="211.5,-140.99 215,-150.99 218.5,-140.99 211.5,-140.99"/>
</g>
</g>
</svg>
