<?xml version="1.0" encoding="UTF-8" standalone="no"?>
<!DOCTYPE svg PUBLIC "-//W3C//DTD SVG 1.1//EN"
 "http://www.w3.org/Graphics/SVG/1.1/DTD/svg11.dtd">
<!-- Generated by graphviz version 2.47.0 (20210316.0004)
 -->
<!-- Title: dependencies Pages: 1 -->
<svg width="636pt" height="284pt"
 viewBox="0.00 0.00 636.00 284.00" xmlns="http://www.w3.org/2000/svg" xmlns:xlink="http://www.w3.org/1999/xlink">
<g id="graph0" class="graph" transform="scale(1 1) rotate(0) translate(4 280)">
<title>dependencies</title>
<polygon fill="white" stroke="transparent" points="-4,4 -4,-280 632,-280 632,4 -4,4"/>
<text text-anchor="start" x="293.01" y="-42.4" font-family="Times-12" font-weight="bold" font-size="14.00">Legend</text>
<polygon fill="#ffffb3" stroke="transparent" points="80,-10 80,-30 100,-30 100,-10 80,-10"/>
<text text-anchor="start" x="103.63" y="-15.4" font-family="Times-12" font-size="14.00"> &#160;Declarations</text>
<polygon fill="#8dd3c7" stroke="transparent" points="193,-10 193,-30 213,-30 213,-10 193,-10"/>
<text text-anchor="start" x="216.73" y="-15.4" font-family="Times-12" font-size="14.00"> &#160;Module</text>
<polygon fill="#80b1d3" stroke="transparent" points="279,-10 279,-30 299,-30 299,-10 279,-10"/>
<text text-anchor="start" x="302.78" y="-15.4" font-family="Times-12" font-size="14.00"> &#160;Bootstrap</text>
<polygon fill="#fdb462" stroke="transparent" points="376,-10 376,-30 396,-30 396,-10 376,-10"/>
<text text-anchor="start" x="399.67" y="-15.4" font-family="Times-12" font-size="14.00"> &#160;Providers</text>
<polygon fill="#fb8072" stroke="transparent" points="472,-10 472,-30 492,-30 492,-10 472,-10"/>
<text text-anchor="start" x="495.73" y="-15.4" font-family="Times-12" font-size="14.00"> &#160;Exports</text>
<g id="clust1" class="cluster">
<title>cluster_FinalAttendanceModule</title>
<polygon fill="none" stroke="black" stroke-dasharray="1,5" points="8,-70 8,-268 620,-268 620,-70 8,-70"/>
</g>
<g id="clust6" class="cluster">
<title>cluster_FinalAttendanceModule_providers</title>
<polygon fill="none" stroke="black" points="388,-78 388,-130 612,-130 612,-78 388,-78"/>
</g>
<g id="clust3" class="cluster">
<title>cluster_FinalAttendanceModule_imports</title>
<polygon fill="none" stroke="black" points="16,-78 16,-130 380,-130 380,-78 16,-78"/>
</g>
<g id="clust4" class="cluster">
<title>cluster_FinalAttendanceModule_exports</title>
<polygon fill="none" stroke="black" points="159,-208 159,-260 329,-260 329,-208 159,-208"/>
</g>
<!-- AttendanceModule -->
<g id="node1" class="node">
<title>AttendanceModule</title>
<polygon fill="#8dd3c7" stroke="black" points="371.8,-122 368.8,-126 347.8,-126 344.8,-122 248.2,-122 248.2,-86 371.8,-86 371.8,-122"/>
<text text-anchor="middle" x="310" y="-99.8" font-family="Times,serif" font-size="14.00">AttendanceModule</text>
</g>
<!-- FinalAttendanceModule -->
<g id="node4" class="node">
<title>FinalAttendanceModule</title>
<polygon fill="#8dd3c7" stroke="black" points="320.07,-187 317.07,-191 296.07,-191 293.07,-187 167.93,-187 167.93,-151 320.07,-151 320.07,-187"/>
<text text-anchor="middle" x="244" y="-164.8" font-family="Times,serif" font-size="14.00">FinalAttendanceModule</text>
</g>
<!-- AttendanceModule&#45;&gt;FinalAttendanceModule -->
<g id="edge1" class="edge">
<title>AttendanceModule&#45;&gt;FinalAttendanceModule</title>
<path fill="none" stroke="black" d="M284.19,-122.11C284.19,-122.11 284.19,-140.99 284.19,-140.99"/>
<polygon fill="black" stroke="black" points="280.69,-140.99 284.19,-150.99 287.69,-140.99 280.69,-140.99"/>
</g>
<!-- StudentModule -->
<g id="node2" class="node">
<title>StudentModule</title>
<polygon fill="#8dd3c7" stroke="black" points="230.33,-122 227.33,-126 206.33,-126 203.33,-122 127.67,-122 127.67,-86 230.33,-86 230.33,-122"/>
<text text-anchor="middle" x="179" y="-99.8" font-family="Times,serif" font-size="14.00">StudentModule</text>
</g>
<!-- StudentModule&#45;&gt;FinalAttendanceModule -->
<g id="edge2" class="edge">
<title>StudentModule&#45;&gt;FinalAttendanceModule</title>
<path fill="none" stroke="black" d="M199.06,-122.11C199.06,-122.11 199.06,-140.99 199.06,-140.99"/>
<polygon fill="black" stroke="black" points="195.56,-140.99 199.06,-150.99 202.56,-140.99 195.56,-140.99"/>
</g>
<!-- UserModule -->
<g id="node3" class="node">
<title>UserModule</title>
<polygon fill="#8dd3c7" stroke="black" points="109.98,-122 106.98,-126 85.98,-126 82.98,-122 24.02,-122 24.02,-86 109.98,-86 109.98,-122"/>
<text text-anchor="middle" x="67" y="-99.8" font-family="Times,serif" font-size="14.00">UserModule</text>
</g>
<!-- UserModule&#45;&gt;FinalAttendanceModule -->
<g id="edge3" class="edge">
<title>UserModule&#45;&gt;FinalAttendanceModule</title>
<path fill="none" stroke="black" d="M67,-122.11C67,-141.34 67,-169 67,-169 67,-169 157.91,-169 157.91,-169"/>
<polygon fill="black" stroke="black" points="157.91,-172.5 167.91,-169 157.91,-165.5 157.91,-172.5"/>
</g>
<!-- FinalAttendanceService  -->
<g id="node5" class="node">
<title>FinalAttendanceService </title>
<polygon fill="#fb8072" stroke="black" points="321,-252 167,-252 167,-216 321,-216 321,-252"/>
<text text-anchor="middle" x="244" y="-229.8" font-family="Times,serif" font-size="14.00">FinalAttendanceService </text>
</g>
<!-- FinalAttendanceModule&#45;&gt;FinalAttendanceService  -->
<g id="edge4" class="edge">
<title>FinalAttendanceModule&#45;&gt;FinalAttendanceService </title>
<path fill="none" stroke="black" stroke-dasharray="5,2" d="M244,-187.11C244,-187.11 244,-205.99 244,-205.99"/>
<polygon fill="black" stroke="black" points="240.5,-205.99 244,-215.99 247.5,-205.99 240.5,-205.99"/>
</g>
<!-- FinalAttendanceService -->
<g id="node6" class="node">
<title>FinalAttendanceService</title>
<ellipse fill="#fdb462" stroke="black" cx="500" cy="-104" rx="103.63" ry="18"/>
<text text-anchor="middle" x="500" y="-99.8" font-family="Times,serif" font-size="14.00">FinalAttendanceService</text>
</g>
<!-- FinalAttendanceService&#45;&gt;FinalAttendanceModule -->
<g id="edge5" class="edge">
<title>FinalAttendanceService&#45;&gt;FinalAttendanceModule</title>
<path fill="none" stroke="black" d="M500,-122.11C500,-141.34 500,-169 500,-169 500,-169 330.12,-169 330.12,-169"/>
<polygon fill="black" stroke="black" points="330.12,-165.5 320.12,-169 330.12,-172.5 330.12,-165.5"/>
</g>
</g>
</svg>
