<?xml version="1.0" encoding="UTF-8" standalone="no"?>
<!DOCTYPE svg PUBLIC "-//W3C//DTD SVG 1.1//EN"
 "http://www.w3.org/Graphics/SVG/1.1/DTD/svg11.dtd">
<!-- Generated by graphviz version 2.47.0 (20210316.0004)
 -->
<!-- Title: dependencies Pages: 1 -->
<svg width="551pt" height="211pt"
 viewBox="0.00 0.00 551.00 211.00" xmlns="http://www.w3.org/2000/svg" xmlns:xlink="http://www.w3.org/1999/xlink">
<g id="graph0" class="graph" transform="scale(1 1) rotate(0) translate(4 207)">
<title>dependencies</title>
<polygon fill="white" stroke="transparent" points="-4,4 -4,-207 547,-207 547,4 -4,4"/>
<text text-anchor="start" x="250.51" y="-42.4" font-family="Times-12" font-weight="bold" font-size="14.00">Legend</text>
<polygon fill="#ffffb3" stroke="transparent" points="37.5,-10 37.5,-30 57.5,-30 57.5,-10 37.5,-10"/>
<text text-anchor="start" x="61.13" y="-15.4" font-family="Times-12" font-size="14.00"> &#160;Declarations</text>
<polygon fill="#8dd3c7" stroke="transparent" points="150.5,-10 150.5,-30 170.5,-30 170.5,-10 150.5,-10"/>
<text text-anchor="start" x="174.23" y="-15.4" font-family="Times-12" font-size="14.00"> &#160;Module</text>
<polygon fill="#80b1d3" stroke="transparent" points="236.5,-10 236.5,-30 256.5,-30 256.5,-10 236.5,-10"/>
<text text-anchor="start" x="260.28" y="-15.4" font-family="Times-12" font-size="14.00"> &#160;Bootstrap</text>
<polygon fill="#fdb462" stroke="transparent" points="333.5,-10 333.5,-30 353.5,-30 353.5,-10 333.5,-10"/>
<text text-anchor="start" x="357.17" y="-15.4" font-family="Times-12" font-size="14.00"> &#160;Providers</text>
<polygon fill="#fb8072" stroke="transparent" points="429.5,-10 429.5,-30 449.5,-30 449.5,-10 429.5,-10"/>
<text text-anchor="start" x="453.23" y="-15.4" font-family="Times-12" font-size="14.00"> &#160;Exports</text>
<g id="clust1" class="cluster">
<title>cluster_TeacherModule</title>
<polygon fill="none" stroke="black" stroke-dasharray="1,5" points="8,-70 8,-195 535,-195 535,-70 8,-70"/>
</g>
<g id="clust6" class="cluster">
<title>cluster_TeacherModule_providers</title>
<polygon fill="none" stroke="black" points="369,-78 369,-130 527,-130 527,-78 369,-78"/>
</g>
<g id="clust3" class="cluster">
<title>cluster_TeacherModule_imports</title>
<polygon fill="none" stroke="black" points="16,-78 16,-130 361,-130 361,-78 16,-78"/>
</g>
<!-- AddressModule -->
<g id="node1" class="node">
<title>AddressModule</title>
<polygon fill="#8dd3c7" stroke="black" points="352.92,-122 349.92,-126 328.92,-126 325.92,-122 247.08,-122 247.08,-86 352.92,-86 352.92,-122"/>
<text text-anchor="middle" x="300" y="-99.8" font-family="Times,serif" font-size="14.00">AddressModule</text>
</g>
<!-- TeacherModule -->
<g id="node4" class="node">
<title>TeacherModule</title>
<polygon fill="#8dd3c7" stroke="black" points="291.12,-187 288.12,-191 267.12,-191 264.12,-187 186.88,-187 186.88,-151 291.12,-151 291.12,-187"/>
<text text-anchor="middle" x="239" y="-164.8" font-family="Times,serif" font-size="14.00">TeacherModule</text>
</g>
<!-- AddressModule&#45;&gt;TeacherModule -->
<g id="edge1" class="edge">
<title>AddressModule&#45;&gt;TeacherModule</title>
<path fill="none" stroke="black" d="M269.3,-122.11C269.3,-122.11 269.3,-140.99 269.3,-140.99"/>
<polygon fill="black" stroke="black" points="265.8,-140.99 269.3,-150.99 272.8,-140.99 265.8,-140.99"/>
</g>
<!-- SubjectModule -->
<g id="node2" class="node">
<title>SubjectModule</title>
<polygon fill="#8dd3c7" stroke="black" points="229.54,-122 226.54,-126 205.54,-126 202.54,-122 128.46,-122 128.46,-86 229.54,-86 229.54,-122"/>
<text text-anchor="middle" x="179" y="-99.8" font-family="Times,serif" font-size="14.00">SubjectModule</text>
</g>
<!-- SubjectModule&#45;&gt;TeacherModule -->
<g id="edge2" class="edge">
<title>SubjectModule&#45;&gt;TeacherModule</title>
<path fill="none" stroke="black" d="M208.23,-122.11C208.23,-122.11 208.23,-140.99 208.23,-140.99"/>
<polygon fill="black" stroke="black" points="204.73,-140.99 208.23,-150.99 211.73,-140.99 204.73,-140.99"/>
</g>
<!-- UserModule -->
<g id="node3" class="node">
<title>UserModule</title>
<polygon fill="#8dd3c7" stroke="black" points="109.98,-122 106.98,-126 85.98,-126 82.98,-122 24.02,-122 24.02,-86 109.98,-86 109.98,-122"/>
<text text-anchor="middle" x="67" y="-99.8" font-family="Times,serif" font-size="14.00">UserModule</text>
</g>
<!-- UserModule&#45;&gt;TeacherModule -->
<g id="edge3" class="edge">
<title>UserModule&#45;&gt;TeacherModule</title>
<path fill="none" stroke="black" d="M67,-122.11C67,-141.34 67,-169 67,-169 67,-169 176.46,-169 176.46,-169"/>
<polygon fill="black" stroke="black" points="176.46,-172.5 186.46,-169 176.46,-165.5 176.46,-172.5"/>
</g>
<!-- TeacherService -->
<g id="node5" class="node">
<title>TeacherService</title>
<ellipse fill="#fdb462" stroke="black" cx="448" cy="-104" rx="71.16" ry="18"/>
<text text-anchor="middle" x="448" y="-99.8" font-family="Times,serif" font-size="14.00">TeacherService</text>
</g>
<!-- TeacherService&#45;&gt;TeacherModule -->
<g id="edge4" class="edge">
<title>TeacherService&#45;&gt;TeacherModule</title>
<path fill="none" stroke="black" d="M448,-122.11C448,-141.34 448,-169 448,-169 448,-169 301.2,-169 301.2,-169"/>
<polygon fill="black" stroke="black" points="301.2,-165.5 291.2,-169 301.2,-172.5 301.2,-165.5"/>
</g>
</g>
</svg>
