<?xml version="1.0" encoding="UTF-8" standalone="no"?>
<!DOCTYPE svg PUBLIC "-//W3C//DTD SVG 1.1//EN"
 "http://www.w3.org/Graphics/SVG/1.1/DTD/svg11.dtd">
<!-- Generated by graphviz version 2.47.0 (20210316.0004)
 -->
<!-- Title: dependencies Pages: 1 -->
<svg width="504pt" height="284pt"
 viewBox="0.00 0.00 504.00 284.00" xmlns="http://www.w3.org/2000/svg" xmlns:xlink="http://www.w3.org/1999/xlink">
<g id="graph0" class="graph" transform="scale(1 1) rotate(0) translate(4 280)">
<title>dependencies</title>
<polygon fill="white" stroke="transparent" points="-4,4 -4,-280 500,-280 500,4 -4,4"/>
<text text-anchor="start" x="227.01" y="-42.4" font-family="Times-12" font-weight="bold" font-size="14.00">Legend</text>
<polygon fill="#ffffb3" stroke="transparent" points="14,-10 14,-30 34,-30 34,-10 14,-10"/>
<text text-anchor="start" x="37.63" y="-15.4" font-family="Times-12" font-size="14.00"> &#160;Declarations</text>
<polygon fill="#8dd3c7" stroke="transparent" points="127,-10 127,-30 147,-30 147,-10 127,-10"/>
<text text-anchor="start" x="150.73" y="-15.4" font-family="Times-12" font-size="14.00"> &#160;Module</text>
<polygon fill="#80b1d3" stroke="transparent" points="213,-10 213,-30 233,-30 233,-10 213,-10"/>
<text text-anchor="start" x="236.78" y="-15.4" font-family="Times-12" font-size="14.00"> &#160;Bootstrap</text>
<polygon fill="#fdb462" stroke="transparent" points="310,-10 310,-30 330,-30 330,-10 310,-10"/>
<text text-anchor="start" x="333.67" y="-15.4" font-family="Times-12" font-size="14.00"> &#160;Providers</text>
<polygon fill="#fb8072" stroke="transparent" points="406,-10 406,-30 426,-30 426,-10 406,-10"/>
<text text-anchor="start" x="429.73" y="-15.4" font-family="Times-12" font-size="14.00"> &#160;Exports</text>
<g id="clust1" class="cluster">
<title>cluster_AttendanceModule</title>
<polygon fill="none" stroke="black" stroke-dasharray="1,5" points="69,-70 69,-268 427,-268 427,-70 69,-70"/>
</g>
<g id="clust6" class="cluster">
<title>cluster_AttendanceModule_providers</title>
<polygon fill="none" stroke="black" points="203,-78 203,-130 419,-130 419,-78 203,-78"/>
</g>
<g id="clust4" class="cluster">
<title>cluster_AttendanceModule_exports</title>
<polygon fill="none" stroke="black" points="153,-208 153,-260 317,-260 317,-208 153,-208"/>
</g>
<g id="clust3" class="cluster">
<title>cluster_AttendanceModule_imports</title>
<polygon fill="none" stroke="black" points="77,-78 77,-130 195,-130 195,-78 77,-78"/>
</g>
<!-- StudentModule -->
<g id="node1" class="node">
<title>StudentModule</title>
<polygon fill="#8dd3c7" stroke="black" points="187.33,-122 184.33,-126 163.33,-126 160.33,-122 84.67,-122 84.67,-86 187.33,-86 187.33,-122"/>
<text text-anchor="middle" x="136" y="-99.8" font-family="Times,serif" font-size="14.00">StudentModule</text>
</g>
<!-- AttendanceModule -->
<g id="node2" class="node">
<title>AttendanceModule</title>
<polygon fill="#8dd3c7" stroke="black" points="296.8,-187 293.8,-191 272.8,-191 269.8,-187 173.2,-187 173.2,-151 296.8,-151 296.8,-187"/>
<text text-anchor="middle" x="235" y="-164.8" font-family="Times,serif" font-size="14.00">AttendanceModule</text>
</g>
<!-- StudentModule&#45;&gt;AttendanceModule -->
<g id="edge1" class="edge">
<title>StudentModule&#45;&gt;AttendanceModule</title>
<path fill="none" stroke="black" d="M180.26,-122.11C180.26,-122.11 180.26,-140.99 180.26,-140.99"/>
<polygon fill="black" stroke="black" points="176.76,-140.99 180.26,-150.99 183.76,-140.99 176.76,-140.99"/>
</g>
<!-- AttendanceLogService  -->
<g id="node3" class="node">
<title>AttendanceLogService </title>
<polygon fill="#fb8072" stroke="black" points="308.78,-252 161.22,-252 161.22,-216 308.78,-216 308.78,-252"/>
<text text-anchor="middle" x="235" y="-229.8" font-family="Times,serif" font-size="14.00">AttendanceLogService </text>
</g>
<!-- AttendanceModule&#45;&gt;AttendanceLogService  -->
<g id="edge2" class="edge">
<title>AttendanceModule&#45;&gt;AttendanceLogService </title>
<path fill="none" stroke="black" stroke-dasharray="5,2" d="M235,-187.11C235,-187.11 235,-205.99 235,-205.99"/>
<polygon fill="black" stroke="black" points="231.5,-205.99 235,-215.99 238.5,-205.99 231.5,-205.99"/>
</g>
<!-- AttendanceLogService -->
<g id="node4" class="node">
<title>AttendanceLogService</title>
<ellipse fill="#fdb462" stroke="black" cx="311" cy="-104" rx="99.54" ry="18"/>
<text text-anchor="middle" x="311" y="-99.8" font-family="Times,serif" font-size="14.00">AttendanceLogService</text>
</g>
<!-- AttendanceLogService&#45;&gt;AttendanceModule -->
<g id="edge3" class="edge">
<title>AttendanceLogService&#45;&gt;AttendanceModule</title>
<path fill="none" stroke="black" d="M254.06,-119.08C254.06,-119.08 254.06,-140.76 254.06,-140.76"/>
<polygon fill="black" stroke="black" points="250.56,-140.76 254.06,-150.76 257.56,-140.76 250.56,-140.76"/>
</g>
</g>
</svg>
