<?xml version="1.0" encoding="UTF-8" standalone="no"?>
<!DOCTYPE svg PUBLIC "-//W3C//DTD SVG 1.1//EN"
 "http://www.w3.org/Graphics/SVG/1.1/DTD/svg11.dtd">
<!-- Generated by graphviz version 2.47.0 (20210316.0004)
 -->
<!-- Title: dependencies Pages: 1 -->
<svg width="1270pt" height="211pt"
 viewBox="0.00 0.00 1270.00 211.00" xmlns="http://www.w3.org/2000/svg" xmlns:xlink="http://www.w3.org/1999/xlink">
<g id="graph0" class="graph" transform="scale(1 1) rotate(0) translate(4 207)">
<title>dependencies</title>
<polygon fill="white" stroke="transparent" points="-4,4 -4,-207 1266,-207 1266,4 -4,4"/>
<text text-anchor="start" x="610.01" y="-42.4" font-family="Times-12" font-weight="bold" font-size="14.00">Legend</text>
<polygon fill="#ffffb3" stroke="transparent" points="397,-10 397,-30 417,-30 417,-10 397,-10"/>
<text text-anchor="start" x="420.63" y="-15.4" font-family="Times-12" font-size="14.00"> &#160;Declarations</text>
<polygon fill="#8dd3c7" stroke="transparent" points="510,-10 510,-30 530,-30 530,-10 510,-10"/>
<text text-anchor="start" x="533.73" y="-15.4" font-family="Times-12" font-size="14.00"> &#160;Module</text>
<polygon fill="#80b1d3" stroke="transparent" points="596,-10 596,-30 616,-30 616,-10 596,-10"/>
<text text-anchor="start" x="619.78" y="-15.4" font-family="Times-12" font-size="14.00"> &#160;Bootstrap</text>
<polygon fill="#fdb462" stroke="transparent" points="693,-10 693,-30 713,-30 713,-10 693,-10"/>
<text text-anchor="start" x="716.67" y="-15.4" font-family="Times-12" font-size="14.00"> &#160;Providers</text>
<polygon fill="#fb8072" stroke="transparent" points="789,-10 789,-30 809,-30 809,-10 789,-10"/>
<text text-anchor="start" x="812.73" y="-15.4" font-family="Times-12" font-size="14.00"> &#160;Exports</text>
<g id="clust1" class="cluster">
<title>cluster_AppModule</title>
<polygon fill="none" stroke="black" stroke-dasharray="1,5" points="8,-70 8,-195 1254,-195 1254,-70 8,-70"/>
</g>
<g id="clust6" class="cluster">
<title>cluster_AppModule_providers</title>
<polygon fill="none" stroke="black" points="1116,-78 1116,-130 1246,-130 1246,-78 1116,-78"/>
</g>
<g id="clust3" class="cluster">
<title>cluster_AppModule_imports</title>
<polygon fill="none" stroke="black" points="16,-78 16,-130 1108,-130 1108,-78 16,-78"/>
</g>
<!-- AttendanceModule -->
<g id="node1" class="node">
<title>AttendanceModule</title>
<polygon fill="#8dd3c7" stroke="black" points="1099.8,-122 1096.8,-126 1075.8,-126 1072.8,-122 976.2,-122 976.2,-86 1099.8,-86 1099.8,-122"/>
<text text-anchor="middle" x="1038" y="-99.8" font-family="Times,serif" font-size="14.00">AttendanceModule</text>
</g>
<!-- AppModule -->
<g id="node10" class="node">
<title>AppModule</title>
<polygon fill="#8dd3c7" stroke="black" points="633.66,-187 630.66,-191 609.66,-191 606.66,-187 550.34,-187 550.34,-151 633.66,-151 633.66,-187"/>
<text text-anchor="middle" x="592" y="-164.8" font-family="Times,serif" font-size="14.00">AppModule</text>
</g>
<!-- AttendanceModule&#45;&gt;AppModule -->
<g id="edge1" class="edge">
<title>AttendanceModule&#45;&gt;AppModule</title>
<path fill="none" stroke="black" d="M1038,-122.13C1038,-142.57 1038,-173 1038,-173 1038,-173 643.96,-173 643.96,-173"/>
<polygon fill="black" stroke="black" points="643.96,-169.5 633.96,-173 643.96,-176.5 643.96,-169.5"/>
</g>
<!-- AuthenticationModule -->
<g id="node2" class="node">
<title>AuthenticationModule</title>
<polygon fill="#8dd3c7" stroke="black" points="958.25,-122 955.25,-126 934.25,-126 931.25,-122 815.75,-122 815.75,-86 958.25,-86 958.25,-122"/>
<text text-anchor="middle" x="887" y="-99.8" font-family="Times,serif" font-size="14.00">AuthenticationModule</text>
</g>
<!-- AuthenticationModule&#45;&gt;AppModule -->
<g id="edge2" class="edge">
<title>AuthenticationModule&#45;&gt;AppModule</title>
<path fill="none" stroke="black" d="M887,-122.27C887,-140.56 887,-166 887,-166 887,-166 643.95,-166 643.95,-166"/>
<polygon fill="black" stroke="black" points="643.95,-162.5 633.95,-166 643.95,-169.5 643.95,-162.5"/>
</g>
<!-- ClassModule -->
<g id="node3" class="node">
<title>ClassModule</title>
<polygon fill="#8dd3c7" stroke="black" points="797.88,-122 794.88,-126 773.88,-126 770.88,-122 708.12,-122 708.12,-86 797.88,-86 797.88,-122"/>
<text text-anchor="middle" x="753" y="-99.8" font-family="Times,serif" font-size="14.00">ClassModule</text>
</g>
<!-- ClassModule&#45;&gt;AppModule -->
<g id="edge3" class="edge">
<title>ClassModule&#45;&gt;AppModule</title>
<path fill="none" stroke="black" d="M753,-122.01C753,-138.05 753,-159 753,-159 753,-159 643.88,-159 643.88,-159"/>
<polygon fill="black" stroke="black" points="643.88,-155.5 633.88,-159 643.88,-162.5 643.88,-155.5"/>
</g>
<!-- CoreModule -->
<g id="node4" class="node">
<title>CoreModule</title>
<polygon fill="#8dd3c7" stroke="black" points="690.26,-122 687.26,-126 666.26,-126 663.26,-122 603.74,-122 603.74,-86 690.26,-86 690.26,-122"/>
<text text-anchor="middle" x="647" y="-99.8" font-family="Times,serif" font-size="14.00">CoreModule</text>
</g>
<!-- CoreModule&#45;&gt;AppModule -->
<g id="edge4" class="edge">
<title>CoreModule&#45;&gt;AppModule</title>
<path fill="none" stroke="black" d="M618.72,-122.11C618.72,-122.11 618.72,-140.99 618.72,-140.99"/>
<polygon fill="black" stroke="black" points="615.22,-140.99 618.72,-150.99 622.22,-140.99 615.22,-140.99"/>
</g>
<!-- MarksModule -->
<g id="node5" class="node">
<title>MarksModule</title>
<polygon fill="#8dd3c7" stroke="black" points="585.81,-122 582.81,-126 561.81,-126 558.81,-122 490.19,-122 490.19,-86 585.81,-86 585.81,-122"/>
<text text-anchor="middle" x="538" y="-99.8" font-family="Times,serif" font-size="14.00">MarksModule</text>
</g>
<!-- MarksModule&#45;&gt;AppModule -->
<g id="edge5" class="edge">
<title>MarksModule&#45;&gt;AppModule</title>
<path fill="none" stroke="black" d="M567.91,-122.11C567.91,-122.11 567.91,-140.99 567.91,-140.99"/>
<polygon fill="black" stroke="black" points="564.41,-140.99 567.91,-150.99 571.41,-140.99 564.41,-140.99"/>
</g>
<!-- StudentModule -->
<g id="node6" class="node">
<title>StudentModule</title>
<polygon fill="#8dd3c7" stroke="black" points="472.33,-122 469.33,-126 448.33,-126 445.33,-122 369.67,-122 369.67,-86 472.33,-86 472.33,-122"/>
<text text-anchor="middle" x="421" y="-99.8" font-family="Times,serif" font-size="14.00">StudentModule</text>
</g>
<!-- StudentModule&#45;&gt;AppModule -->
<g id="edge6" class="edge">
<title>StudentModule&#45;&gt;AppModule</title>
<path fill="none" stroke="black" d="M421,-122.01C421,-138.05 421,-159 421,-159 421,-159 540.17,-159 540.17,-159"/>
<polygon fill="black" stroke="black" points="540.17,-162.5 550.17,-159 540.17,-155.5 540.17,-162.5"/>
</g>
<!-- SubjectModule -->
<g id="node7" class="node">
<title>SubjectModule</title>
<polygon fill="#8dd3c7" stroke="black" points="351.54,-122 348.54,-126 327.54,-126 324.54,-122 250.46,-122 250.46,-86 351.54,-86 351.54,-122"/>
<text text-anchor="middle" x="301" y="-99.8" font-family="Times,serif" font-size="14.00">SubjectModule</text>
</g>
<!-- SubjectModule&#45;&gt;AppModule -->
<g id="edge7" class="edge">
<title>SubjectModule&#45;&gt;AppModule</title>
<path fill="none" stroke="black" d="M301,-122.27C301,-140.56 301,-166 301,-166 301,-166 540.31,-166 540.31,-166"/>
<polygon fill="black" stroke="black" points="540.31,-169.5 550.31,-166 540.31,-162.5 540.31,-169.5"/>
</g>
<!-- TeacherModule -->
<g id="node8" class="node">
<title>TeacherModule</title>
<polygon fill="#8dd3c7" stroke="black" points="232.12,-122 229.12,-126 208.12,-126 205.12,-122 127.88,-122 127.88,-86 232.12,-86 232.12,-122"/>
<text text-anchor="middle" x="180" y="-99.8" font-family="Times,serif" font-size="14.00">TeacherModule</text>
</g>
<!-- TeacherModule&#45;&gt;AppModule -->
<g id="edge8" class="edge">
<title>TeacherModule&#45;&gt;AppModule</title>
<path fill="none" stroke="black" d="M180,-122.13C180,-142.57 180,-173 180,-173 180,-173 540.23,-173 540.23,-173"/>
<polygon fill="black" stroke="black" points="540.23,-176.5 550.23,-173 540.23,-169.5 540.23,-176.5"/>
</g>
<!-- UserModule -->
<g id="node9" class="node">
<title>UserModule</title>
<polygon fill="#8dd3c7" stroke="black" points="109.98,-122 106.98,-126 85.98,-126 82.98,-122 24.02,-122 24.02,-86 109.98,-86 109.98,-122"/>
<text text-anchor="middle" x="67" y="-99.8" font-family="Times,serif" font-size="14.00">UserModule</text>
</g>
<!-- UserModule&#45;&gt;AppModule -->
<g id="edge9" class="edge">
<title>UserModule&#45;&gt;AppModule</title>
<path fill="none" stroke="black" d="M67,-122.01C67,-144.49 67,-180 67,-180 67,-180 539.92,-180 539.92,-180"/>
<polygon fill="black" stroke="black" points="539.92,-183.5 549.92,-180 539.92,-176.5 539.92,-183.5"/>
</g>
<!-- AppService -->
<g id="node11" class="node">
<title>AppService</title>
<ellipse fill="#fdb462" stroke="black" cx="1181" cy="-104" rx="56.74" ry="18"/>
<text text-anchor="middle" x="1181" y="-99.8" font-family="Times,serif" font-size="14.00">AppService</text>
</g>
<!-- AppService&#45;&gt;AppModule -->
<g id="edge10" class="edge">
<title>AppService&#45;&gt;AppModule</title>
<path fill="none" stroke="black" d="M1181,-122.01C1181,-144.49 1181,-180 1181,-180 1181,-180 643.89,-180 643.89,-180"/>
<polygon fill="black" stroke="black" points="643.89,-176.5 633.89,-180 643.89,-183.5 643.89,-176.5"/>
</g>
</g>
</svg>
