<?xml version="1.0" encoding="UTF-8" standalone="no"?>
<!DOCTYPE svg PUBLIC "-//W3C//DTD SVG 1.1//EN"
 "http://www.w3.org/Graphics/SVG/1.1/DTD/svg11.dtd">
<!-- Generated by graphviz version 2.47.0 (20210316.0004)
 -->
<!-- Title: dependencies Pages: 1 -->
<svg width="1563pt" height="211pt"
 viewBox="0.00 0.00 1563.00 211.00" xmlns="http://www.w3.org/2000/svg" xmlns:xlink="http://www.w3.org/1999/xlink">
<g id="graph0" class="graph" transform="scale(1 1) rotate(0) translate(4 207)">
<title>dependencies</title>
<polygon fill="white" stroke="transparent" points="-4,4 -4,-207 1559,-207 1559,4 -4,4"/>
<text text-anchor="start" x="756.51" y="-42.4" font-family="Times-12" font-weight="bold" font-size="14.00">Legend</text>
<polygon fill="#ffffb3" stroke="transparent" points="543.5,-10 543.5,-30 563.5,-30 563.5,-10 543.5,-10"/>
<text text-anchor="start" x="567.13" y="-15.4" font-family="Times-12" font-size="14.00"> &#160;Declarations</text>
<polygon fill="#8dd3c7" stroke="transparent" points="656.5,-10 656.5,-30 676.5,-30 676.5,-10 656.5,-10"/>
<text text-anchor="start" x="680.23" y="-15.4" font-family="Times-12" font-size="14.00"> &#160;Module</text>
<polygon fill="#80b1d3" stroke="transparent" points="742.5,-10 742.5,-30 762.5,-30 762.5,-10 742.5,-10"/>
<text text-anchor="start" x="766.28" y="-15.4" font-family="Times-12" font-size="14.00"> &#160;Bootstrap</text>
<polygon fill="#fdb462" stroke="transparent" points="839.5,-10 839.5,-30 859.5,-30 859.5,-10 839.5,-10"/>
<text text-anchor="start" x="863.17" y="-15.4" font-family="Times-12" font-size="14.00"> &#160;Providers</text>
<polygon fill="#fb8072" stroke="transparent" points="935.5,-10 935.5,-30 955.5,-30 955.5,-10 935.5,-10"/>
<text text-anchor="start" x="959.23" y="-15.4" font-family="Times-12" font-size="14.00"> &#160;Exports</text>
<g id="clust1" class="cluster">
<title>cluster_AppModule</title>
<polygon fill="none" stroke="black" stroke-dasharray="1,5" points="8,-70 8,-195 1547,-195 1547,-70 8,-70"/>
</g>
<g id="clust6" class="cluster">
<title>cluster_AppModule_providers</title>
<polygon fill="none" stroke="black" points="1409,-78 1409,-130 1539,-130 1539,-78 1409,-78"/>
</g>
<g id="clust3" class="cluster">
<title>cluster_AppModule_imports</title>
<polygon fill="none" stroke="black" points="16,-78 16,-130 1401,-130 1401,-78 16,-78"/>
</g>
<!-- AddressModule -->
<g id="node1" class="node">
<title>AddressModule</title>
<polygon fill="#8dd3c7" stroke="black" points="1392.92,-122 1389.92,-126 1368.92,-126 1365.92,-122 1287.08,-122 1287.08,-86 1392.92,-86 1392.92,-122"/>
<text text-anchor="middle" x="1340" y="-99.8" font-family="Times,serif" font-size="14.00">AddressModule</text>
</g>
<!-- AppModule -->
<g id="node12" class="node">
<title>AppModule</title>
<polygon fill="#8dd3c7" stroke="black" points="789.66,-187 786.66,-191 765.66,-191 762.66,-187 706.34,-187 706.34,-151 789.66,-151 789.66,-187"/>
<text text-anchor="middle" x="748" y="-164.8" font-family="Times,serif" font-size="14.00">AppModule</text>
</g>
<!-- AddressModule&#45;&gt;AppModule -->
<g id="edge1" class="edge">
<title>AddressModule&#45;&gt;AppModule</title>
<path fill="none" stroke="black" d="M1340,-122.28C1340,-143.32 1340,-175 1340,-175 1340,-175 800.1,-175 800.1,-175"/>
<polygon fill="black" stroke="black" points="800.1,-171.5 790.1,-175 800.1,-178.5 800.1,-171.5"/>
</g>
<!-- AttendanceModule -->
<g id="node2" class="node">
<title>AttendanceModule</title>
<polygon fill="#8dd3c7" stroke="black" points="1269.8,-122 1266.8,-126 1245.8,-126 1242.8,-122 1146.2,-122 1146.2,-86 1269.8,-86 1269.8,-122"/>
<text text-anchor="middle" x="1208" y="-99.8" font-family="Times,serif" font-size="14.00">AttendanceModule</text>
</g>
<!-- AttendanceModule&#45;&gt;AppModule -->
<g id="edge2" class="edge">
<title>AttendanceModule&#45;&gt;AppModule</title>
<path fill="none" stroke="black" d="M1208,-122.11C1208,-141.34 1208,-169 1208,-169 1208,-169 800.04,-169 800.04,-169"/>
<polygon fill="black" stroke="black" points="800.04,-165.5 790.04,-169 800.04,-172.5 800.04,-165.5"/>
</g>
<!-- AuthenticationModule -->
<g id="node3" class="node">
<title>AuthenticationModule</title>
<polygon fill="#8dd3c7" stroke="black" points="1128.25,-122 1125.25,-126 1104.25,-126 1101.25,-122 985.75,-122 985.75,-86 1128.25,-86 1128.25,-122"/>
<text text-anchor="middle" x="1057" y="-99.8" font-family="Times,serif" font-size="14.00">AuthenticationModule</text>
</g>
<!-- AuthenticationModule&#45;&gt;AppModule -->
<g id="edge3" class="edge">
<title>AuthenticationModule&#45;&gt;AppModule</title>
<path fill="none" stroke="black" d="M1057,-122.02C1057,-139.37 1057,-163 1057,-163 1057,-163 799.67,-163 799.67,-163"/>
<polygon fill="black" stroke="black" points="799.67,-159.5 789.67,-163 799.67,-166.5 799.67,-159.5"/>
</g>
<!-- ClassModule -->
<g id="node4" class="node">
<title>ClassModule</title>
<polygon fill="#8dd3c7" stroke="black" points="967.88,-122 964.88,-126 943.88,-126 940.88,-122 878.12,-122 878.12,-86 967.88,-86 967.88,-122"/>
<text text-anchor="middle" x="923" y="-99.8" font-family="Times,serif" font-size="14.00">ClassModule</text>
</g>
<!-- ClassModule&#45;&gt;AppModule -->
<g id="edge4" class="edge">
<title>ClassModule&#45;&gt;AppModule</title>
<path fill="none" stroke="black" d="M923,-122.24C923,-137.57 923,-157 923,-157 923,-157 799.92,-157 799.92,-157"/>
<polygon fill="black" stroke="black" points="799.92,-153.5 789.92,-157 799.92,-160.5 799.92,-153.5"/>
</g>
<!-- CoreModule -->
<g id="node5" class="node">
<title>CoreModule</title>
<polygon fill="#8dd3c7" stroke="black" points="860.26,-122 857.26,-126 836.26,-126 833.26,-122 773.74,-122 773.74,-86 860.26,-86 860.26,-122"/>
<text text-anchor="middle" x="817" y="-99.8" font-family="Times,serif" font-size="14.00">CoreModule</text>
</g>
<!-- CoreModule&#45;&gt;AppModule -->
<g id="edge5" class="edge">
<title>CoreModule&#45;&gt;AppModule</title>
<path fill="none" stroke="black" d="M781.72,-122.11C781.72,-122.11 781.72,-140.99 781.72,-140.99"/>
<polygon fill="black" stroke="black" points="778.22,-140.99 781.72,-150.99 785.22,-140.99 778.22,-140.99"/>
</g>
<!-- FinalAttendanceModule -->
<g id="node6" class="node">
<title>FinalAttendanceModule</title>
<polygon fill="#8dd3c7" stroke="black" points="756.07,-122 753.07,-126 732.07,-126 729.07,-122 603.93,-122 603.93,-86 756.07,-86 756.07,-122"/>
<text text-anchor="middle" x="680" y="-99.8" font-family="Times,serif" font-size="14.00">FinalAttendanceModule</text>
</g>
<!-- FinalAttendanceModule&#45;&gt;AppModule -->
<g id="edge6" class="edge">
<title>FinalAttendanceModule&#45;&gt;AppModule</title>
<path fill="none" stroke="black" d="M731.1,-122.11C731.1,-122.11 731.1,-140.99 731.1,-140.99"/>
<polygon fill="black" stroke="black" points="727.6,-140.99 731.1,-150.99 734.6,-140.99 727.6,-140.99"/>
</g>
<!-- MarksModule -->
<g id="node7" class="node">
<title>MarksModule</title>
<polygon fill="#8dd3c7" stroke="black" points="585.81,-122 582.81,-126 561.81,-126 558.81,-122 490.19,-122 490.19,-86 585.81,-86 585.81,-122"/>
<text text-anchor="middle" x="538" y="-99.8" font-family="Times,serif" font-size="14.00">MarksModule</text>
</g>
<!-- MarksModule&#45;&gt;AppModule -->
<g id="edge7" class="edge">
<title>MarksModule&#45;&gt;AppModule</title>
<path fill="none" stroke="black" d="M538,-122.24C538,-137.57 538,-157 538,-157 538,-157 696.26,-157 696.26,-157"/>
<polygon fill="black" stroke="black" points="696.26,-160.5 706.26,-157 696.26,-153.5 696.26,-160.5"/>
</g>
<!-- StudentModule -->
<g id="node8" class="node">
<title>StudentModule</title>
<polygon fill="#8dd3c7" stroke="black" points="472.33,-122 469.33,-126 448.33,-126 445.33,-122 369.67,-122 369.67,-86 472.33,-86 472.33,-122"/>
<text text-anchor="middle" x="421" y="-99.8" font-family="Times,serif" font-size="14.00">StudentModule</text>
</g>
<!-- StudentModule&#45;&gt;AppModule -->
<g id="edge8" class="edge">
<title>StudentModule&#45;&gt;AppModule</title>
<path fill="none" stroke="black" d="M421,-122.02C421,-139.37 421,-163 421,-163 421,-163 696.25,-163 696.25,-163"/>
<polygon fill="black" stroke="black" points="696.25,-166.5 706.25,-163 696.25,-159.5 696.25,-166.5"/>
</g>
<!-- SubjectModule -->
<g id="node9" class="node">
<title>SubjectModule</title>
<polygon fill="#8dd3c7" stroke="black" points="351.54,-122 348.54,-126 327.54,-126 324.54,-122 250.46,-122 250.46,-86 351.54,-86 351.54,-122"/>
<text text-anchor="middle" x="301" y="-99.8" font-family="Times,serif" font-size="14.00">SubjectModule</text>
</g>
<!-- SubjectModule&#45;&gt;AppModule -->
<g id="edge9" class="edge">
<title>SubjectModule&#45;&gt;AppModule</title>
<path fill="none" stroke="black" d="M301,-122.11C301,-141.34 301,-169 301,-169 301,-169 695.95,-169 695.95,-169"/>
<polygon fill="black" stroke="black" points="695.95,-172.5 705.95,-169 695.95,-165.5 695.95,-172.5"/>
</g>
<!-- TeacherModule -->
<g id="node10" class="node">
<title>TeacherModule</title>
<polygon fill="#8dd3c7" stroke="black" points="232.12,-122 229.12,-126 208.12,-126 205.12,-122 127.88,-122 127.88,-86 232.12,-86 232.12,-122"/>
<text text-anchor="middle" x="180" y="-99.8" font-family="Times,serif" font-size="14.00">TeacherModule</text>
</g>
<!-- TeacherModule&#45;&gt;AppModule -->
<g id="edge10" class="edge">
<title>TeacherModule&#45;&gt;AppModule</title>
<path fill="none" stroke="black" d="M180,-122.28C180,-143.32 180,-175 180,-175 180,-175 696.23,-175 696.23,-175"/>
<polygon fill="black" stroke="black" points="696.23,-178.5 706.23,-175 696.23,-171.5 696.23,-178.5"/>
</g>
<!-- UserModule -->
<g id="node11" class="node">
<title>UserModule</title>
<polygon fill="#8dd3c7" stroke="black" points="109.98,-122 106.98,-126 85.98,-126 82.98,-122 24.02,-122 24.02,-86 109.98,-86 109.98,-122"/>
<text text-anchor="middle" x="67" y="-99.8" font-family="Times,serif" font-size="14.00">UserModule</text>
</g>
<!-- UserModule&#45;&gt;AppModule -->
<g id="edge11" class="edge">
<title>UserModule&#45;&gt;AppModule</title>
<path fill="none" stroke="black" d="M67,-122.09C67,-145.13 67,-182 67,-182 67,-182 696.17,-182 696.17,-182"/>
<polygon fill="black" stroke="black" points="696.17,-185.5 706.17,-182 696.17,-178.5 696.17,-185.5"/>
</g>
<!-- AppService -->
<g id="node13" class="node">
<title>AppService</title>
<ellipse fill="#fdb462" stroke="black" cx="1474" cy="-104" rx="56.74" ry="18"/>
<text text-anchor="middle" x="1474" y="-99.8" font-family="Times,serif" font-size="14.00">AppService</text>
</g>
<!-- AppService&#45;&gt;AppModule -->
<g id="edge12" class="edge">
<title>AppService&#45;&gt;AppModule</title>
<path fill="none" stroke="black" d="M1474,-122.09C1474,-145.13 1474,-182 1474,-182 1474,-182 799.91,-182 799.91,-182"/>
<polygon fill="black" stroke="black" points="799.91,-178.5 789.91,-182 799.91,-185.5 799.91,-178.5"/>
</g>
</g>
</svg>
