<?xml version="1.0" encoding="UTF-8" standalone="no"?>
<!DOCTYPE svg PUBLIC "-//W3C//DTD SVG 1.1//EN"
 "http://www.w3.org/Graphics/SVG/1.1/DTD/svg11.dtd">
<!-- Generated by graphviz version 2.47.0 (20210316.0004)
 -->
<!-- Title: dependencies Pages: 1 -->
<svg width="504pt" height="284pt"
 viewBox="0.00 0.00 504.00 284.00" xmlns="http://www.w3.org/2000/svg" xmlns:xlink="http://www.w3.org/1999/xlink">
<g id="graph0" class="graph" transform="scale(1 1) rotate(0) translate(4 280)">
<title>dependencies</title>
<polygon fill="white" stroke="transparent" points="-4,4 -4,-280 500,-280 500,4 -4,4"/>
<text text-anchor="start" x="227.01" y="-42.4" font-family="Times-12" font-weight="bold" font-size="14.00">Legend</text>
<polygon fill="#ffffb3" stroke="transparent" points="14,-10 14,-30 34,-30 34,-10 14,-10"/>
<text text-anchor="start" x="37.63" y="-15.4" font-family="Times-12" font-size="14.00"> &#160;Declarations</text>
<polygon fill="#8dd3c7" stroke="transparent" points="127,-10 127,-30 147,-30 147,-10 127,-10"/>
<text text-anchor="start" x="150.73" y="-15.4" font-family="Times-12" font-size="14.00"> &#160;Module</text>
<polygon fill="#80b1d3" stroke="transparent" points="213,-10 213,-30 233,-30 233,-10 213,-10"/>
<text text-anchor="start" x="236.78" y="-15.4" font-family="Times-12" font-size="14.00"> &#160;Bootstrap</text>
<polygon fill="#fdb462" stroke="transparent" points="310,-10 310,-30 330,-30 330,-10 310,-10"/>
<text text-anchor="start" x="333.67" y="-15.4" font-family="Times-12" font-size="14.00"> &#160;Providers</text>
<polygon fill="#fb8072" stroke="transparent" points="406,-10 406,-30 426,-30 426,-10 406,-10"/>
<text text-anchor="start" x="429.73" y="-15.4" font-family="Times-12" font-size="14.00"> &#160;Exports</text>
<g id="clust1" class="cluster">
<title>cluster_MarksModule</title>
<polygon fill="none" stroke="black" stroke-dasharray="1,5" points="44,-70 44,-268 452,-268 452,-70 44,-70"/>
</g>
<g id="clust3" class="cluster">
<title>cluster_MarksModule_imports</title>
<polygon fill="none" stroke="black" points="206,-78 206,-130 444,-130 444,-78 206,-78"/>
</g>
<g id="clust4" class="cluster">
<title>cluster_MarksModule_exports</title>
<polygon fill="none" stroke="black" points="208,-208 208,-260 322,-260 322,-208 208,-208"/>
</g>
<g id="clust6" class="cluster">
<title>cluster_MarksModule_providers</title>
<polygon fill="none" stroke="black" points="52,-78 52,-130 198,-130 198,-78 52,-78"/>
</g>
<!-- StudentModule -->
<g id="node1" class="node">
<title>StudentModule</title>
<polygon fill="#8dd3c7" stroke="black" points="436.33,-122 433.33,-126 412.33,-126 409.33,-122 333.67,-122 333.67,-86 436.33,-86 436.33,-122"/>
<text text-anchor="middle" x="385" y="-99.8" font-family="Times,serif" font-size="14.00">StudentModule</text>
</g>
<!-- MarksModule -->
<g id="node3" class="node">
<title>MarksModule</title>
<polygon fill="#8dd3c7" stroke="black" points="312.81,-187 309.81,-191 288.81,-191 285.81,-187 217.19,-187 217.19,-151 312.81,-151 312.81,-187"/>
<text text-anchor="middle" x="265" y="-164.8" font-family="Times,serif" font-size="14.00">MarksModule</text>
</g>
<!-- StudentModule&#45;&gt;MarksModule -->
<g id="edge1" class="edge">
<title>StudentModule&#45;&gt;MarksModule</title>
<path fill="none" stroke="black" d="M385,-122.11C385,-141.34 385,-169 385,-169 385,-169 322.77,-169 322.77,-169"/>
<polygon fill="black" stroke="black" points="322.77,-165.5 312.77,-169 322.77,-172.5 322.77,-165.5"/>
</g>
<!-- SubjectModule -->
<g id="node2" class="node">
<title>SubjectModule</title>
<polygon fill="#8dd3c7" stroke="black" points="315.54,-122 312.54,-126 291.54,-126 288.54,-122 214.46,-122 214.46,-86 315.54,-86 315.54,-122"/>
<text text-anchor="middle" x="265" y="-99.8" font-family="Times,serif" font-size="14.00">SubjectModule</text>
</g>
<!-- SubjectModule&#45;&gt;MarksModule -->
<g id="edge2" class="edge">
<title>SubjectModule&#45;&gt;MarksModule</title>
<path fill="none" stroke="black" d="M265,-122.11C265,-122.11 265,-140.99 265,-140.99"/>
<polygon fill="black" stroke="black" points="261.5,-140.99 265,-150.99 268.5,-140.99 261.5,-140.99"/>
</g>
<!-- MarksService  -->
<g id="node4" class="node">
<title>MarksService </title>
<polygon fill="#fb8072" stroke="black" points="313.74,-252 216.26,-252 216.26,-216 313.74,-216 313.74,-252"/>
<text text-anchor="middle" x="265" y="-229.8" font-family="Times,serif" font-size="14.00">MarksService </text>
</g>
<!-- MarksModule&#45;&gt;MarksService  -->
<g id="edge3" class="edge">
<title>MarksModule&#45;&gt;MarksService </title>
<path fill="none" stroke="black" stroke-dasharray="5,2" d="M265,-187.11C265,-187.11 265,-205.99 265,-205.99"/>
<polygon fill="black" stroke="black" points="261.5,-205.99 265,-215.99 268.5,-205.99 261.5,-205.99"/>
</g>
<!-- MarksService -->
<g id="node5" class="node">
<title>MarksService</title>
<ellipse fill="#fdb462" stroke="black" cx="125" cy="-104" rx="64.82" ry="18"/>
<text text-anchor="middle" x="125" y="-99.8" font-family="Times,serif" font-size="14.00">MarksService</text>
</g>
<!-- MarksService&#45;&gt;MarksModule -->
<g id="edge4" class="edge">
<title>MarksService&#45;&gt;MarksModule</title>
<path fill="none" stroke="black" d="M125,-122.11C125,-141.34 125,-169 125,-169 125,-169 207.21,-169 207.21,-169"/>
<polygon fill="black" stroke="black" points="207.21,-172.5 217.21,-169 207.21,-165.5 207.21,-172.5"/>
</g>
</g>
</svg>
